<svg width="32" height="32" viewBox="0 0 32 32" fill="none" xmlns="http://www.w3.org/2000/svg">
<path fill-rule="evenodd" clip-rule="evenodd" d="M16 1.33331C24.1002 1.33331 30.6666 7.8998 30.6666 16C30.6666 24.1002 24.1002 30.6666 16 30.6666C7.8998 30.6666 1.33331 24.1002 1.33331 16C1.33331 7.8998 7.8998 1.33331 16 1.33331ZM4.08751 14.5432C4.47623 15.0407 5.55707 15.6773 7.21099 16.1967C7.86222 16.4012 8.57544 16.5809 9.34072 16.7336C9.33579 16.4905 9.33331 16.2459 9.33331 16C9.33331 11.5631 10.1407 7.55638 11.5394 4.85639C7.55214 6.45387 4.62168 10.1293 4.08751 14.5432ZM9.5055 19.4811C7.36443 19.1089 5.52857 18.5457 4.13726 17.821C4.78447 22.0722 7.66234 25.5902 11.5394 27.1436C10.5182 25.1723 9.8122 22.5044 9.5055 19.4811ZM12.2385 19.8364C13.4347 19.9442 14.6945 20 16 20C17.2844 20 18.5499 19.9272 19.767 19.7922C19.1656 24.5889 17.5026 28 16 28C14.5019 28 12.8446 24.6099 12.2385 19.8364ZM19.9817 17.0727C18.7156 17.2366 17.3707 17.3333 16 17.3333C14.6077 17.3333 13.2712 17.2644 12.0204 17.1336C12.0069 16.7607 12 16.3826 12 16C12 9.31197 14.1248 3.99998 16 3.99998C17.8752 3.99998 20 9.31197 20 16C20 16.3618 19.9938 16.7195 19.9817 17.0727ZM22.5056 19.3692C22.2051 22.4385 21.4943 25.148 20.4606 27.1436C24.4061 25.5628 27.3168 21.9474 27.8949 17.5952C26.4813 18.3305 24.6196 18.9453 22.5056 19.3692ZM27.9047 14.4802C27.2773 15.1844 25.2982 16.021 22.6616 16.6055C22.665 16.4046 22.6666 16.2027 22.6666 16C22.6666 11.5631 21.8592 7.55638 20.4606 4.85639C24.4288 6.44626 27.3503 10.0943 27.9047 14.4802Z" fill="white"/>
</svg>
