<svg width="116" height="91" viewBox="0 0 116 91" fill="none" xmlns="http://www.w3.org/2000/svg">
<g clip-path="url(#clip0_4004_507)">
<path d="M5.26582 57.8352L6.55595 59.1253L5.26582 60.4154L3.9757 59.1253L5.26582 57.8352ZM10.5349 61.1461V55.1891L9.0243 56.6997V61.1428C9.0243 61.6003 8.64582 61.9787 8.18835 61.9787H2.34658C1.88911 61.9787 1.51063 61.6003 1.51063 61.1428V57.098C1.51063 56.6339 1.88253 56.262 2.34658 56.262H5.99975L7.51038 54.7514H2.34658C1.05646 54.7514 0 55.8078 0 57.098V61.1428C0 62.4362 1.05646 63.4894 2.34658 63.4894H8.18506C9.47848 63.4894 10.5316 62.4329 10.5316 61.1428L10.5349 61.1461ZM16.7749 66.142L17.9466 64.9704L19.1182 66.142L17.9466 67.3137L16.7749 66.142L15.6033 64.9704L14.4316 66.142L15.6033 67.3137L16.7749 66.142ZM59.5565 66.142L60.7281 67.3137L61.8997 66.142L60.7281 64.9704L59.5565 66.142L58.3848 67.3137L57.2132 66.142L56.0415 64.9704L54.8699 66.142L56.0415 67.3137L57.2132 66.142L58.3848 64.9704L59.5565 66.142ZM52.2139 56.9663L50.7033 58.477C50.7033 60.3332 50.7033 60.5668 50.7033 62.4197C50.7033 63.8547 50.203 64.7071 49.4395 65.3324C48.7056 65.9347 48.2646 66.3296 47.2443 66.8365L49.897 66.8792C51.3089 66.0104 52.2139 64.9046 52.2139 62.4197V56.9663ZM46.0266 58.5527L47.5372 57.042V61.7319C47.5372 62.6962 46.7441 63.4959 45.7732 63.4959H44.1144L42.6597 62.0413V63.4959H22.2251L20.7144 61.9853C24.361 61.9853 32.6284 61.9853 36.2749 61.9853V58.6777L37.7856 57.1671V61.9853H41.1491V58.6152L42.6597 57.1046V61.9853H46.0266V58.5527ZM56.2028 51.8453L54.6922 53.3559V61.7319C54.6922 62.6962 55.4853 63.4959 56.4562 63.4959H60.32C61.2909 63.4959 62.0841 62.6962 62.0841 61.7319V57.042L60.5734 58.5527C60.5734 59.698 60.5734 60.84 60.5734 61.9853H56.2061V51.8486L56.2028 51.8453ZM81.7387 61.982L83.2494 63.4927H105.142L106.653 61.982H102.104V58.5494H107.288V63.4927H113.729C114.699 63.4927 115.493 62.6962 115.493 61.7286V58.7995C115.493 57.8319 114.696 57.0354 113.729 57.0354H110.941L109.43 58.5461H113.982V61.9787H108.798V55.0278H107.288V57.0354H102.358C101.39 57.0354 100.594 57.8319 100.594 58.7995V61.9787H81.7387V61.982ZM76.8711 57.9833L78.0428 59.1549L76.8711 60.3266L75.6995 59.1549L76.8711 57.9833L78.0428 56.8116L76.8711 55.64L75.6995 56.8116L76.8711 57.9833ZM73.8137 63.2491C73.8104 63.1899 73.8071 63.1339 73.8071 63.0747V62.7094C74.4423 63.2096 75.163 63.4959 76.1043 63.4959H81.3866C81.3866 61.3732 81.3997 59.2504 81.3997 57.1276L79.8891 58.6382V61.982H76.1043C74.8372 61.982 73.8071 60.9387 73.8071 59.6848V51.8322L72.2965 53.3428V59.6815V59.6881V59.6947C72.2965 59.7144 72.2965 59.7375 72.2965 59.7572V62.7028V63.0681C72.2965 64.3286 71.2598 65.3653 69.9992 65.3653H69.6109H66.7904C66.3329 65.3653 65.9544 64.9868 65.9544 64.5294V60.4846C65.9544 60.0205 66.3263 59.6486 66.7904 59.6486H69.183L70.6937 58.138H66.7904C65.5003 58.138 64.4438 59.1944 64.4438 60.4846V64.5294C64.4438 65.8228 65.5003 66.8759 66.7904 66.8759H69.5846H69.1567H69.9828C70.7332 66.8759 71.4342 66.6587 72.0266 66.2803C72.3294 66.0762 72.6157 65.8261 72.8889 65.5332C73.4253 64.9078 73.7643 64.1147 73.8104 63.2425L73.8137 63.2491ZM18.957 58.5889L20.4676 57.0782V61.7319C20.4676 62.6962 19.6744 63.4959 18.7035 63.4959H14.8397C13.8689 63.4959 13.0757 62.6962 13.0757 61.7319V53.3559L14.5863 51.8453V61.982H18.9537V58.5889H18.957Z" fill="white"/>
<path d="M106.518 69.7787H98.6289V71.0623H106.518V69.7787ZM98.6289 78.2732H106.518V76.9896H100.169V71.0985L98.6289 72.6387V78.2732ZM101.607 73.3858L100.324 74.6694H106.518V73.3858H101.607Z" fill="white"/>
<path d="M96.8747 71.0656V69.7787H88.9792V71.0656H92.1618V78.2732H93.702V71.0656H96.8747Z" fill="white"/>
<path d="M108.634 78.2732H115.47V75.2025H113.929V76.7395V76.9896H113.679H110.428H110.174V76.7395V69.7787H108.634V78.2732Z" fill="white"/>
<path d="M42.584 69.7787H41.0438V78.2732H42.584V69.7787Z" fill="white"/>
<path d="M22.1132 78.2732V71.6349L20.5729 73.1522V78.2699H22.1132V78.2732ZM29.1858 78.2732L25.582 74.6694H26.9314C27.7871 74.6694 28.4684 73.9914 28.4684 73.1324V71.3157C28.4684 70.46 27.7871 69.7787 26.9314 69.7787H20.5729V71.0623H26.9281V73.3825H24.2919L22.1165 73.3793L27.0104 78.2732H29.1858Z" fill="white"/>
<path d="M10.2157 78.2732V69.7787H16.561C17.4134 69.7787 18.098 70.46 18.098 71.3157V78.2732H16.5577V74.6694H11.8975L13.181 73.3858H16.5577V71.0656H11.7527V78.2765H10.2124L10.2157 78.2732Z" fill="white"/>
<path d="M1.56329 78.2732V71.635L0.023037 73.1555V78.2732H1.56329ZM2.21494 74.6694L3.49848 73.3858H6.37823V71.0656H0.023037V69.782H6.38152C7.23721 69.782 7.91848 70.4633 7.91848 71.319V73.1357C7.91848 73.9914 7.23721 74.6727 6.38152 74.6727H2.21494V74.6694Z" fill="white"/>
<path d="M35.0013 73.3858H32.1215V71.0656H38.4767V69.782H32.1182C31.2625 69.782 30.5813 70.4633 30.5813 71.319V73.1357C30.5813 73.9914 31.2625 74.6727 32.1182 74.6727H36.9365V76.9929H30.5813V78.2765H36.9397C37.7954 78.2765 38.4767 77.5952 38.4767 76.7395V74.9228C38.4767 74.0671 37.7987 73.3858 36.9397 73.3858H35.0013Z" fill="white"/>
<path d="M44.8813 78.2732V69.7787H51.2266C52.079 69.7787 52.7635 70.46 52.7635 71.3157V78.2732H51.2233V74.6694H46.563L47.8466 73.3858H51.2233V71.0656H46.4182V78.2765H44.878L44.8813 78.2732Z" fill="white"/>
<path d="M55.2385 78.2732V69.7787H61.5838C62.4362 69.7787 63.1208 70.46 63.1208 71.3157V78.2732H61.5805V71.0623H56.7754V78.2732H55.2352H55.2385Z" fill="white"/>
<path d="M71.9476 73.3858L70.6641 74.6694H75.3243V78.2732H76.8646V69.7787H75.3243V73.3825H71.9476V73.3858ZM68.9823 78.2732V69.7787H70.5225V78.2732H68.9823Z" fill="white"/>
<path d="M81.0575 69.7787C80.1919 69.7787 79.5238 70.46 79.5238 71.3157V76.7395C79.5238 77.5952 80.2018 78.2765 81.0575 78.2765C81.0641 78.2765 81.0608 71.6711 81.0608 71.0656H85.8658V76.9929H82.578L81.2944 78.2765H85.8658C86.7215 78.2765 87.4061 77.5985 87.4061 76.7395V71.3157C87.4061 70.46 86.7248 69.7787 85.8691 69.7787H81.0575Z" fill="white"/>
<path fill-rule="evenodd" clip-rule="evenodd" d="M37.6111 83.9043L38.8354 87.2053H36.3967L37.6111 83.9043ZM44.8944 89.8613C44.9866 89.8613 45.0359 89.8185 45.0359 89.7297V89.3775C45.0359 89.2919 44.9932 89.2459 44.9043 89.2459H42.2056L44.8846 85.8264C44.9833 85.698 45.0359 85.5762 45.0359 85.4545V85.1648C45.0359 85.0727 44.9932 85.0233 44.9043 85.0233H41.4453C41.3532 85.0233 41.3038 85.0694 41.3038 85.1648V85.5071C41.3038 85.5927 41.3466 85.6388 41.4354 85.6388H44.1638L41.4453 89.0681C41.3532 89.1965 41.3038 89.3183 41.3038 89.44V89.7297C41.3038 89.8152 41.3466 89.8613 41.4354 89.8613H44.8944ZM49.0577 88.1269L48.9458 88.4165C48.8734 88.6172 48.7154 88.818 48.4785 89.0188C48.2415 89.2195 47.9552 89.3183 47.6195 89.3183C47.3266 89.3183 47.0929 89.2557 46.9218 89.1339C46.7506 89.0089 46.6651 88.8345 46.6651 88.6074C46.6651 88.3803 46.7605 88.2157 46.9514 88.0972C47.1423 87.9755 47.4154 87.9162 47.7676 87.9162H49.0511V88.1269H49.0577ZM50.2195 89.4104C50.2195 89.3446 50.18 89.3018 50.0977 89.2886C49.9035 89.2623 49.8081 89.0945 49.8081 88.7884V86.6722C49.8081 85.5367 49.1959 84.9674 47.9716 84.9674C47.3957 84.9674 46.9481 85.0957 46.6289 85.3491C46.3096 85.6026 46.1484 85.9317 46.1484 86.3332C46.1484 86.6886 46.2339 86.8631 46.4084 86.8631H46.7901C46.8362 86.8631 46.8691 86.8532 46.8889 86.8367C46.9086 86.8203 46.9152 86.7939 46.9086 86.761C46.8757 86.6755 46.8592 86.5701 46.8592 86.4517C46.8592 86.1983 46.9547 85.9942 47.1456 85.8395C47.3365 85.6848 47.6063 85.6091 47.9519 85.6091C48.6891 85.6091 49.0544 85.958 49.0544 86.6524V87.3732H47.7709C46.5203 87.3732 45.8949 87.8076 45.8949 88.6765C45.8949 89.0583 46.0299 89.361 46.2997 89.5848C46.5696 89.8086 46.9481 89.9205 47.4286 89.9205C48.2316 89.9205 48.7944 89.6112 49.1235 88.9891V89.1405C49.1235 89.3874 49.1927 89.575 49.3276 89.6967C49.4658 89.8218 49.6468 89.881 49.8739 89.881C50.101 89.881 50.2162 89.8317 50.2162 89.7297V89.4071L50.2195 89.4104ZM55.6762 89.4203C55.6762 89.3545 55.6367 89.3117 55.5577 89.2886C55.3635 89.2623 55.2681 89.0846 55.2681 88.7555V82.7162C55.2681 82.6241 55.222 82.5747 55.1266 82.5747H54.6461C54.5605 82.5747 54.5144 82.6208 54.5144 82.7162V85.7046C54.5013 85.6783 54.4815 85.6453 54.4552 85.6058C54.4289 85.5663 54.3762 85.5038 54.2939 85.4215C54.2149 85.3393 54.1261 85.2669 54.0273 85.2043C53.9319 85.1451 53.797 85.0891 53.6258 85.0398C53.4547 84.9904 53.2737 84.9641 53.0795 84.9641C52.497 84.9641 52.0165 85.1681 51.6347 85.5795C51.2529 85.9909 51.062 86.6162 51.062 87.4588C51.062 88.3013 51.2496 88.8805 51.6281 89.2952C52.0066 89.7099 52.4608 89.9172 52.9972 89.9172C53.3592 89.9172 53.6752 89.8415 53.9484 89.6869C54.1952 89.5388 54.4058 89.3051 54.5803 88.9858V89.157C54.5803 89.3907 54.6527 89.5717 54.7975 89.7C54.9423 89.8284 55.12 89.8909 55.3339 89.8909C55.561 89.8909 55.6762 89.8415 55.6762 89.7395V89.417V89.4203ZM54.5144 88.1269V88.1367C54.5013 88.2026 54.4749 88.2848 54.4354 88.377C54.3959 88.4691 54.3301 88.5942 54.2413 88.7489C54.1524 88.9036 54.0142 89.0286 53.8299 89.1307C53.6456 89.2294 53.4349 89.2821 53.1914 89.2821C52.803 89.2821 52.4772 89.1274 52.2139 88.8147C51.9506 88.5053 51.819 88.0512 51.819 87.4555C51.819 86.8598 51.9473 86.4023 52.2041 86.0864C52.4608 85.7671 52.7866 85.6091 53.1815 85.6091C53.4152 85.6091 53.6258 85.6552 53.8134 85.7441C54.001 85.8329 54.1392 85.9415 54.2347 86.0699C54.3268 86.1982 54.396 86.3069 54.4387 86.4023C54.4815 86.4945 54.5078 86.5669 54.5144 86.6129V88.1269ZM57.9932 89.4203C57.9932 89.3545 57.9537 89.3117 57.8714 89.2886C57.6772 89.2623 57.5818 89.0977 57.5818 88.7983V85.1385C57.5818 85.0464 57.5357 84.997 57.4403 84.997H56.9499C56.8643 84.997 56.8182 85.0398 56.8182 85.1286V88.8904C56.8182 89.5585 57.0914 89.8942 57.641 89.8942C57.8747 89.8942 57.9932 89.8448 57.9932 89.7428V89.4203ZM57.7727 83.4929C57.7727 83.3383 57.72 83.2099 57.6114 83.1079C57.5028 83.0026 57.3744 82.9532 57.2197 82.9532C57.0651 82.9532 56.9367 83.0058 56.8281 83.1079C56.7195 83.2099 56.6668 83.3415 56.6668 83.4929C56.6668 83.6443 56.7195 83.7661 56.8281 83.8681C56.9367 83.9702 57.0651 84.0228 57.2197 84.0228C57.3744 84.0228 57.5028 83.9702 57.6114 83.8681C57.72 83.7661 57.7727 83.6377 57.7727 83.4929ZM39.7701 89.7428C39.7899 89.8218 39.8425 89.8646 39.9314 89.8646H40.4316C40.4777 89.8646 40.5172 89.8514 40.5468 89.8251C40.5765 89.7988 40.583 89.7658 40.5633 89.7231L38.0653 82.9927C38.0324 82.8939 37.9797 82.8413 37.9041 82.8413H37.3314C37.259 82.8413 37.203 82.8907 37.1701 82.9927L34.6623 89.7231C34.6491 89.7626 34.6557 89.7955 34.6886 89.8251C34.7182 89.8514 34.7577 89.8646 34.8038 89.8646H35.304C35.3896 89.8646 35.4456 89.8251 35.4653 89.7428L36.1565 87.8471H39.0658L39.7668 89.7428H39.7701Z" fill="white"/>
<path fill-rule="evenodd" clip-rule="evenodd" d="M68.9691 88.0742C68.9592 88.2585 68.9856 88.3934 69.0547 88.479C69.2094 88.6732 69.4792 88.7686 69.861 88.7686C70.483 88.7686 70.9899 88.6501 71.3815 88.4165C71.5889 88.2914 71.6086 88.0643 71.4441 87.7319C71.1709 87.1823 70.5423 86.5635 69.5549 85.8757L69.861 85.0628C69.8939 84.9739 69.9795 84.9838 70.1144 85.0924C71.5362 86.2081 72.2471 87.1593 72.2471 87.959C72.2471 88.1927 72.201 88.4033 72.1089 88.5843C71.7732 89.2722 71.0228 89.6144 69.861 89.6111C68.663 89.6111 68.1924 89.0813 68.4491 88.0215L68.9757 88.0742H68.9691Z" fill="white"/>
<path fill-rule="evenodd" clip-rule="evenodd" d="M73.6656 89.6868C73.6294 85.6223 73.5734 83.3349 73.4944 82.8248L74.2053 82.5056C74.2876 82.4694 74.3304 82.5121 74.337 82.6372C74.3896 83.6443 74.4061 85.0003 74.3798 86.6952C74.3534 88.4099 74.3304 89.2787 74.3172 89.3051C74.202 89.5552 73.9815 89.6835 73.6656 89.6835" fill="white"/>
<path fill-rule="evenodd" clip-rule="evenodd" d="M76.5782 83.8023L77.1674 84.3947C77.1937 84.421 77.1871 84.4572 77.1542 84.4934L76.5947 85.0595C76.5486 85.099 76.4993 85.099 76.4565 85.0562L75.9036 84.5033C75.8608 84.4605 75.8608 84.4144 75.9036 84.3716L76.4696 83.8056C76.5058 83.7727 76.5453 83.7727 76.5782 83.8056M74.1889 90.322C75.6995 89.9271 76.5091 89.1767 76.621 88.0742C76.6572 87.7056 76.4861 87.1559 76.1043 86.422C76.1043 86.422 76.2689 86.2114 76.598 85.7967C76.6408 85.744 76.6671 85.721 76.6836 85.7243C76.7428 85.7309 76.8349 85.8494 76.96 86.0765C77.2299 86.5767 77.3648 87.156 77.3648 87.8043C77.3648 88.3737 77.2101 88.9101 76.8975 89.417C76.6111 89.8876 76.2096 90.2727 75.6929 90.5722C75.3506 90.7729 75.0281 90.9078 74.722 90.977C74.5575 91.0165 74.4489 91 74.3995 90.9342C74.2711 90.7729 74.1922 90.661 74.156 90.5952C74.0704 90.4405 74.0803 90.3451 74.1889 90.3187V90.322Z" fill="white"/>
<path fill-rule="evenodd" clip-rule="evenodd" d="M78.622 82.262C78.3225 82.2883 78.0296 82.4266 77.74 82.68C77.6544 82.624 77.5886 82.5615 77.5359 82.4957C77.7927 81.8309 78.079 81.4985 78.3982 81.4985C78.6187 81.4985 78.8557 81.5149 79.1157 81.5478C79.3757 81.5807 79.5633 81.5972 79.6719 81.5972C80.0668 81.5972 80.3466 81.5774 80.5046 81.5347C80.6724 81.4952 80.7744 81.4853 80.8041 81.5083C80.8435 81.5478 80.8106 81.6433 80.7086 81.7914C80.6296 81.9066 80.5144 82.0185 80.3663 82.1238C80.1228 82.2949 79.5435 82.341 78.6187 82.262" fill="white"/>
<path fill-rule="evenodd" clip-rule="evenodd" d="M78.9084 89.6835C78.8754 85.9843 78.8162 83.9043 78.7405 83.437L79.4415 83.1473C79.5238 83.1111 79.5666 83.1506 79.5732 83.2691C79.6258 84.1873 79.6423 85.4182 79.616 86.9618C79.5896 88.5218 79.5666 89.3116 79.5567 89.3347C79.4415 89.5651 79.2243 89.6803 78.9116 89.6835" fill="white"/>
<path fill-rule="evenodd" clip-rule="evenodd" d="M67.9818 83.9109C67.962 84.1051 67.9028 84.4144 67.8008 84.839L67.5836 84.8291C66.9747 84.8028 66.5238 84.9311 66.2309 85.2208C65.9577 85.4972 65.7668 85.8625 65.6714 86.3233L66.9154 86.5635C67.4025 86.659 67.6428 86.8992 67.6395 87.281C67.6395 87.7319 67.5013 88.1367 67.2314 88.4889C66.6587 89.2294 65.7998 89.6013 64.6511 89.6078C63.6539 89.6144 62.9233 89.3742 62.456 88.8871C61.9656 88.3737 61.7977 87.6529 61.9425 86.7281C62.0248 86.1916 62.1795 85.7078 62.4099 85.2734L62.9365 85.4215C62.5744 86.5372 62.5251 87.36 62.7884 87.8866C63.0813 88.4691 63.7099 88.7554 64.6709 88.7489C65.6516 88.7423 66.3757 88.4658 66.8463 87.9195C67.103 87.6266 67.1162 87.462 66.8891 87.4225L65.7273 87.2185C65.339 87.1527 65.1053 87.0177 65.0263 86.8202C64.9539 86.6294 64.9934 86.2838 65.1415 85.777C65.4114 84.862 65.9084 84.2564 66.639 83.9602C67.0635 83.7858 67.5079 83.7694 67.9785 83.9142" fill="white"/>
<path d="M64.2299 0.878734L64.3056 2.38937L65.7668 2.77772L64.3549 3.31747L64.4372 4.8281L63.4894 3.64987L62.0775 4.1962L62.9036 2.92911L61.9491 1.75418L63.4104 2.14911L64.2332 0.878734H64.2299ZM70.2658 3.40304L69.9499 4.88076L71.2598 5.63443L69.7557 5.78911L69.443 7.27013L68.8309 5.88785L67.3268 6.04911L68.4524 5.03873L67.8337 3.65975L69.1403 4.41671L70.2625 3.40304H70.2658ZM51.2562 0.829367L52.0757 2.09975L53.537 1.70481L52.5825 2.87975L53.4086 4.14684L51.9967 3.60051L51.0489 4.77873L51.1311 3.2681L49.7192 2.72835L51.1805 2.34L51.2562 0.829367ZM45.2038 3.31089L46.3261 4.32456L47.6327 3.5676L47.0139 4.94658L48.1395 5.95696L46.6354 5.7957L46.0233 7.17797L45.7106 5.69696L44.2066 5.54228L45.5165 4.78861L45.2005 3.31089H45.2038ZM57.7463 0L58.2104 1.43823H59.721L58.4967 2.32354L58.9673 3.76177L57.7463 2.86987L56.5253 3.76177L56.996 2.32354L55.7717 1.43823H57.2823L57.7463 0.00329114V0Z" fill="white"/>
<path d="M49.2651 46.6453C43.9927 46.7671 41.4651 48.9787 37.7691 44.1342C41.2281 45.9871 41.8732 45.2071 45.7896 45.9871C47.0139 46.2306 48.0408 46.4972 49.2618 46.6453" fill="white"/>
<path d="M48.6891 45.602C44.7628 45.4013 43.8281 44.4337 43.0711 42.5775C42.7486 42.018 42.4853 41.4453 42.2418 40.8628C45.5987 42.2352 45.862 44.5851 48.6891 45.602Z" fill="white"/>
<path d="M36.92 22.2382C37.4597 26.882 35.1987 28.6592 35.1461 31.9701C33.5696 26.2896 35.0473 27.0663 36.92 22.2382Z" fill="white"/>
<path d="M38.118 16.0706C37.8678 17.6537 37.8448 19.2894 36.9167 20.7111C35.9458 22.202 34.9552 23.0643 34.2871 24.779C34.478 19.1149 36.1499 20.1286 38.118 16.0706Z" fill="white"/>
<path d="M33.8922 19.5823C33.9777 21.2674 33.5268 23.1993 33.4841 24.9765C33.0003 20.9514 30.16 20.6552 33.5828 14.1091C33.5992 14.1223 33.619 14.1355 33.6387 14.1486C33.0365 16.1825 33.7901 17.6076 33.8922 19.5823Z" fill="white"/>
<path d="M39.6418 42.0936C40.5139 42.8078 41.2182 43.5845 42.2977 44.4863C41.2511 43.8742 40.7871 43.9762 38.9638 43.2554C35.1461 41.7448 34.1653 41.363 33.0266 37.6769C34.8828 39.961 37.3248 40.1947 39.6451 42.0969" fill="white"/>
<path d="M42.6927 43.7096C42.4886 43.5615 42.2944 43.4134 42.1134 43.2686C41.3301 42.5577 40.5995 41.8008 39.9215 41.001C38.661 39.0625 39.1415 37.361 38.5359 34.6162C41.5868 38.2101 40.2934 40.8825 42.6927 43.7096Z" fill="white"/>
<path d="M36.1301 33.8494C36.1729 32.4046 36.7291 31.0618 36.897 29.0147C38.638 33.0891 36.9562 35.2514 37.96 38.3253C37.1339 37.0188 36.0841 35.4489 36.1301 33.8494Z" fill="white"/>
<path d="M34.4352 34.0633C34.9354 34.682 35.5476 35.8931 36.7423 37.8481C36.9101 38.141 37.6309 39.2731 37.8218 39.6747C34.817 36.3243 32.2597 37.6638 30.7294 29.6334L30.782 29.6136C31.6081 31.8023 33.0792 32.3848 34.4385 34.0633" fill="white"/>
<path d="M33.0792 26.3818C33.4051 27.3428 33.5861 28.9587 34.3825 32.4769C34.3562 32.4835 34.3332 32.4901 34.3101 32.5C32.6514 28.3169 29.7782 29.0344 31.1243 20.9678H31.1803C31.1967 23.3045 32.3848 24.3347 33.0792 26.3818Z" fill="white"/>
<path d="M38.1311 10.6205C37.44 12.8321 36.4856 13.0757 35.5904 14.685C34.6425 16.3866 34.5471 17.8281 34.557 19.8126C35.2942 17.4496 36.3342 17.3344 37.282 15.3992C38.0719 13.7899 38.141 12.48 38.1344 10.6205" fill="white"/>
<path d="M57.7463 50.9534C58.003 50.9468 58.2334 50.8382 58.4013 50.6704C59.0332 50.0385 58.5691 49.3013 57.7463 48.6661C56.9268 49.3046 56.4595 50.0385 57.0914 50.6704C57.2592 50.8382 57.4896 50.9468 57.7463 50.9534ZM54.3861 47.0995C50.5091 46.698 49.5876 52.6911 43.5352 48.5147C43.5911 48.5147 43.6471 48.5147 43.703 48.5147C50.1372 48.5147 50.96 45.4079 54.4519 46.4149C55.1134 46.6058 56.6043 47.241 57.743 48.0671C58.8818 47.241 60.3727 46.6058 61.0342 46.4149C64.5261 45.4079 65.3522 48.5147 71.783 48.5147C71.839 48.5147 71.8949 48.5147 71.9509 48.5147C65.8985 52.6879 64.977 46.698 61.1 47.0995C60.5504 47.1555 59.1846 47.6853 58.1347 48.3798C59.1122 49.196 59.6486 50.1537 58.7633 51.0423C58.5066 51.299 58.1577 51.4636 57.7694 51.4767H57.7398H57.7101C57.3218 51.4603 56.9729 51.2957 56.7162 51.0423C55.8309 50.157 56.3673 49.1992 57.3448 48.3798C56.2949 47.6853 54.9291 47.1555 54.3795 47.0995H54.3861Z" fill="white"/>
<path d="M66.2276 46.6453C71.5 46.7671 74.0276 48.9787 77.7236 44.1342C74.2646 45.9871 73.6195 45.2071 69.703 45.9871C68.4787 46.2306 67.4519 46.4972 66.2309 46.6453" fill="white"/>
<path d="M66.8035 45.602C70.7299 45.4013 71.6646 44.4337 72.4215 42.5775C72.7441 42.018 73.0073 41.4453 73.2509 40.8628C69.8939 42.2352 69.6306 44.5851 66.8035 45.602Z" fill="white"/>
<path d="M78.5727 22.2382C78.0329 26.882 80.2939 28.6592 80.3466 31.9701C81.923 26.2896 80.4453 27.0663 78.5727 22.2382Z" fill="white"/>
<path d="M77.3747 16.0706C77.6248 17.6537 77.6478 19.2894 78.576 20.7111C79.5468 22.202 80.5375 23.0643 81.2056 24.779C81.0147 19.1149 79.3428 20.1286 77.3747 16.0706Z" fill="white"/>
<path d="M81.6005 19.5823C81.5149 21.2674 81.9658 23.1993 82.0086 24.9765C82.4924 20.9514 85.3327 20.6552 81.9099 14.1091C81.8934 14.1223 81.8737 14.1355 81.8539 14.1486C82.4562 16.1825 81.7025 17.6076 81.6005 19.5823Z" fill="white"/>
<path d="M75.8509 42.0936C74.9787 42.8078 74.2744 43.5845 73.1949 44.4863C74.2415 43.8742 74.7056 43.9762 76.5289 43.2554C80.3466 41.7448 81.3273 41.363 82.4661 37.6769C80.6099 39.961 78.1679 40.1947 75.8476 42.0969" fill="white"/>
<path d="M72.8 43.7096C73.004 43.5615 73.1982 43.4134 73.3792 43.2686C74.1625 42.5577 74.8932 41.8008 75.5711 41.001C76.8316 39.0625 76.3511 37.361 76.9567 34.6162C73.9058 38.2101 75.1992 40.8825 72.8 43.7096Z" fill="white"/>
<path d="M79.3625 33.8494C79.3197 32.4046 78.7635 31.0618 78.5957 29.0147C76.8547 33.0891 78.5365 35.2514 77.5327 38.3253C78.3587 37.0188 79.4086 35.4489 79.3625 33.8494Z" fill="white"/>
<path d="M81.0575 34.0633C80.5572 34.682 79.9451 35.8931 78.7504 37.8481C78.5825 38.141 77.8618 39.2731 77.6709 39.6747C80.6757 36.3243 83.2329 37.6638 84.7633 29.6334L84.7106 29.6136C83.8846 31.8023 82.4134 32.3848 81.0542 34.0633" fill="white"/>
<path d="M82.4134 26.3818C82.0876 27.3428 81.9066 28.9587 81.1101 32.4769C81.1332 32.4835 81.1595 32.4901 81.1825 32.5C82.8413 28.3169 85.7144 29.0344 84.3684 20.9678H84.3124C84.2959 23.3045 83.1078 24.3347 82.4134 26.3818Z" fill="white"/>
<path d="M77.3615 10.6205C78.0527 12.8321 79.0071 13.0757 79.9023 14.685C80.8501 16.3866 80.9456 17.8281 80.9357 19.8126C80.1985 17.4496 79.1585 17.3344 78.2106 15.3992C77.4208 13.7899 77.3516 12.48 77.3582 10.6205" fill="white"/>
<path d="M44.2099 37.0813H50.3676V27.0927H48.597V30.9795H46.3425V34.1127H44.2099V37.0813ZM56.397 19.0722V33.1319L56.3937 34.4648C56.3937 34.6195 56.397 34.7709 56.4003 34.919C56.4003 35.0638 56.4068 35.2053 56.4101 35.3436C56.4167 35.6036 56.4233 35.8405 56.4332 36.0512C56.443 36.2519 56.4529 36.4263 56.4628 36.5744C56.4628 36.6008 56.4694 36.6469 56.476 36.6929C56.4825 36.7423 56.4891 36.7917 56.4957 36.818C56.5154 36.9332 56.5418 37.0418 56.5813 37.1405C56.6208 37.2425 56.6701 37.338 56.7261 37.4236C56.7853 37.5124 56.8511 37.5881 56.9235 37.6572C56.9992 37.7263 57.0815 37.7856 57.1671 37.835C57.2033 37.8547 57.2428 37.8744 57.279 37.8909C57.3185 37.9074 57.358 37.9238 57.3975 37.9337C57.4304 37.9436 57.4633 37.9534 57.4962 37.96C57.5192 37.9666 57.5456 37.9699 57.5719 37.9732V37.7362C57.5719 37.6474 57.5719 37.5552 57.5719 37.4598V15.4552C57.5028 15.2117 57.4008 14.9747 57.2757 14.7542C57.1473 14.5337 56.996 14.3296 56.8182 14.1486C56.6438 13.9709 56.4496 13.8162 56.239 13.6912C56.0349 13.5694 55.8111 13.4772 55.5775 13.4147C55.3405 13.3522 55.1167 13.3291 54.9061 13.3357C54.6954 13.3456 54.4947 13.3851 54.3038 13.4575C54.1228 13.5266 53.9549 13.6188 53.7904 13.7405C53.639 13.8524 53.4942 13.9874 53.356 14.1388C53.4744 14.1552 53.5863 14.1782 53.6949 14.2046C53.8167 14.2342 53.9319 14.2704 54.0471 14.3132C54.1722 14.3626 54.2972 14.4185 54.4256 14.4843C54.5506 14.5501 54.679 14.6291 54.8106 14.718C54.9851 14.8365 55.1694 14.9747 55.3438 15.1294C55.4985 15.2676 55.6466 15.419 55.7782 15.5803C55.8967 15.7251 56.002 15.8831 56.0909 16.0443C56.1699 16.1924 56.2324 16.3504 56.2719 16.5084C56.3048 16.64 56.3246 16.775 56.341 16.9165C56.3575 17.058 56.3673 17.2061 56.3772 17.3674C56.3772 17.3772 56.3772 17.3904 56.3805 17.4036C56.3805 17.42 56.3805 17.4365 56.3805 17.4496C56.3871 17.578 56.3904 17.7096 56.397 17.8446C56.4035 17.9795 56.4068 18.1177 56.4101 18.2593C56.4134 18.3843 56.4167 18.5127 56.42 18.6443C56.42 18.776 56.4266 18.9076 56.4299 19.0426V19.0656H56.4101H56.4035L56.397 19.0722ZM65.1251 37.0813H71.2828V34.1127H69.1501V30.9795H66.8957V27.0927H65.1251V37.0813ZM60.6919 6.96078C59.7737 6.6185 58.783 6.43091 57.7463 6.43091C56.7096 6.43091 55.7157 6.6185 54.8008 6.96078C53.8496 7.31622 52.9775 7.83952 52.2271 8.49116C51.4668 9.14939 50.8284 9.94255 50.3446 10.8312C49.8739 11.6967 49.5481 12.6545 49.4066 13.6714C49.3638 13.9709 49.3441 14.2638 49.3342 14.5501C49.3243 14.8398 49.3243 15.1294 49.3243 15.4223C49.3243 17.7393 49.3243 20.0562 49.3243 22.3732C49.3243 23.3572 49.3243 24.3413 49.3243 25.6544V25.6742H47.1916V29.561H44.9372L44.8977 32.6712V32.6909H42.8046V36.6633V36.6863V36.795C42.8046 37.0319 42.8506 37.2557 42.9362 37.4631C43.0251 37.677 43.1534 37.8679 43.3147 38.0291C43.476 38.1904 43.6668 38.3188 43.8808 38.4076C44.0848 38.4932 44.3119 38.5393 44.5489 38.5393H44.6048H44.6279H51.7795V15.5408C51.7762 15.2643 51.7729 14.9846 51.7828 14.7081C51.7927 14.4284 51.8124 14.1519 51.8585 13.8853C51.9737 13.181 52.2139 12.5162 52.5529 11.9172C52.9018 11.3018 53.356 10.7555 53.8891 10.3013C54.419 9.8504 55.0279 9.49167 55.6927 9.24812C56.3344 9.01445 57.0256 8.8861 57.7496 8.8861C58.4737 8.8861 59.1648 9.01445 59.8066 9.24812C60.4714 9.49167 61.0803 9.8504 61.6101 10.3013C62.1433 10.7555 62.5975 11.3018 62.9463 11.9172C63.2853 12.5162 63.5256 13.181 63.6408 13.8853C63.7296 14.4218 63.723 14.9912 63.7198 15.5408V15.8765V38.5491H70.8714H70.8944H70.9504C71.1873 38.5491 71.4111 38.5031 71.6185 38.4175C71.8324 38.3286 72.0233 38.2003 72.1846 38.039C72.3458 37.8777 72.4742 37.6869 72.563 37.4729C72.6486 37.2689 72.6947 37.0418 72.6947 36.8048V36.6962V36.6732V32.7008H70.6015V32.681L70.562 29.5709H68.3076V25.6841H66.1749V25.6643C66.1749 24.361 66.1749 23.3836 66.1749 22.4061C66.1749 20.0826 66.1749 17.7557 66.1749 15.4322C66.1749 14.8398 66.1749 14.2803 66.0927 13.678C65.9511 12.661 65.6253 11.7033 65.1547 10.8377C64.6709 9.94914 64.0291 9.15597 63.2722 8.49774C62.5185 7.84281 61.6496 7.32281 60.6985 6.96736L60.6919 6.96078ZM60.2246 8.25749C59.4544 7.96787 58.6185 7.8099 57.7463 7.8099C56.8742 7.8099 56.0382 7.96787 55.2681 8.25749C54.4684 8.55698 53.7377 8.998 53.1058 9.55091C52.4706 10.1071 51.9342 10.7785 51.5327 11.5289C51.141 12.2595 50.8744 13.0691 50.7592 13.9248C50.6934 14.4185 50.6967 14.9089 50.6967 15.4058C50.7066 20.2701 50.7033 25.1345 50.7 29.9988C50.7 32.4276 50.6967 34.8565 50.6967 37.3939V37.4137H43.8775V33.7836H46.0101V30.6504H48.2646V26.7636H50.3676V15.4223C50.3676 14.9188 50.3643 14.4152 50.4301 13.9117C50.5453 13.0132 50.8218 12.1641 51.2332 11.3939C51.6544 10.6041 52.2139 9.89977 52.882 9.31395C53.5435 8.73141 54.3104 8.26736 55.1496 7.95141C55.9592 7.64534 56.8347 7.48078 57.7496 7.48078C58.6646 7.48078 59.54 7.64863 60.3496 7.95141C61.1889 8.26736 61.9557 8.73141 62.6172 9.31395C63.282 9.89977 63.8448 10.6041 64.2661 11.3939C64.6742 12.1608 64.9539 13.0099 65.0691 13.9117C65.1349 14.4152 65.1316 14.9188 65.1316 15.4223V26.7669H67.2347V30.6537H69.4891V33.7869H71.6218V37.417H64.8025V37.3972C64.8025 34.8598 64.8025 32.4309 64.7992 30.002C64.796 25.1377 64.7927 20.2734 64.8025 15.4091C64.8025 14.9122 64.8058 14.4218 64.74 13.9281C64.6281 13.0724 64.3582 12.2628 63.9666 11.5322C63.5651 10.7818 63.0286 10.1104 62.3934 9.5542C61.7615 9.00129 61.0309 8.56028 60.2311 8.26078L60.2246 8.25749ZM57.9701 14.4646C58.059 14.3165 58.1544 14.1782 58.263 14.0499C58.3782 13.9117 58.5066 13.7833 58.6547 13.6648C58.7995 13.5496 58.9575 13.441 59.1385 13.3423C59.2372 13.0165 59.2734 12.6808 59.2603 12.3484C59.2438 11.9896 59.1681 11.6342 59.043 11.2952C58.9114 10.9332 58.7271 10.5942 58.5066 10.2914C58.2828 9.98534 58.0228 9.71876 57.7463 9.51141C57.4699 9.71876 57.2099 9.98534 56.9861 10.2914C56.7656 10.5942 56.5813 10.9332 56.4496 11.2952C56.3279 11.6309 56.2489 11.9864 56.2324 12.3484C56.216 12.6808 56.2554 13.0132 56.3542 13.3423C56.5352 13.441 56.6932 13.5496 56.838 13.6648C56.9828 13.7833 57.1144 13.9117 57.2296 14.0499C57.3382 14.1782 57.4337 14.3165 57.5225 14.4646C57.6048 14.5995 57.6772 14.7443 57.7463 14.899C57.8154 14.7443 57.8911 14.5995 57.9701 14.4646ZM62.1663 32.9509V26.1613V19.3519V19.3322H62.1795V16.8079C62.1795 16.6236 62.2025 16.4458 62.2486 16.2747C62.2947 16.097 62.3638 15.9291 62.4494 15.7745C62.5053 15.6724 62.5711 15.5737 62.6468 15.4815C62.6929 15.4223 62.7423 15.3664 62.7949 15.3137C62.7028 15.3598 62.6106 15.4058 62.5218 15.4552C62.3967 15.5243 62.2749 15.6 62.163 15.6823C62.0051 15.8008 61.857 15.9324 61.7286 16.0871C61.6003 16.2418 61.4916 16.4228 61.4061 16.6301C61.3534 16.7618 61.3073 16.9296 61.2744 17.1271C61.2382 17.3246 61.2119 17.5484 61.1922 17.7919C61.1757 17.9894 61.1658 18.1967 61.156 18.4074C61.1461 18.618 61.1428 18.8352 61.1395 19.0491V19.0689H61.1296V33.1253V33.5729C61.077 34.399 60.9717 35.2251 60.6919 35.9656C60.4122 36.7061 59.9547 37.3577 59.1911 37.835C58.9706 37.9732 58.7337 38.0818 58.4868 38.1542C58.2499 38.2233 57.9997 38.2595 57.743 38.2562C57.4863 38.2562 57.2362 38.2233 56.9992 38.1542C56.7524 38.0818 56.5154 37.9732 56.2949 37.835C55.5314 37.3577 55.0739 36.7061 54.7942 35.9656C54.5144 35.2284 54.4124 34.4023 54.3565 33.5762V33.1253V19.0689H54.3466V19.0491C54.3466 18.8352 54.34 18.618 54.3301 18.4074C54.3235 18.1967 54.3104 17.9894 54.2939 17.7919C54.2742 17.5517 54.2479 17.3246 54.2116 17.1271C54.1754 16.9296 54.1327 16.7618 54.08 16.6301C53.9944 16.4228 53.8825 16.2451 53.7575 16.0871C53.6291 15.9324 53.4843 15.7975 53.3263 15.6823C53.2144 15.6 53.0927 15.5243 52.9676 15.4552C52.8787 15.4058 52.7866 15.3598 52.6944 15.3137C52.7471 15.3664 52.7965 15.4256 52.8425 15.4815C52.9149 15.5737 52.9808 15.6724 53.04 15.7745C53.1256 15.9291 53.1947 16.097 53.2408 16.2747C53.2835 16.4458 53.3099 16.6236 53.3099 16.8079V19.3322H53.323V26.1613V32.9509V32.9707V33.0398V33.1286C53.3395 34.6294 53.5797 35.9886 54.2511 36.976C54.9192 37.96 56.0185 38.5689 57.743 38.5689C59.4676 38.5689 60.5668 37.9567 61.2349 36.976C61.9063 35.9919 62.1466 34.6294 62.163 33.1319V33.0398V32.9707V32.9509H62.1663ZM59.0957 33.1319V19.0722H59.0661V19.0491C59.0661 18.9142 59.0727 18.7826 59.076 18.6542C59.0792 18.5226 59.0825 18.3909 59.0858 18.2658C59.0891 18.1243 59.0957 17.9861 59.099 17.8512C59.1056 17.7162 59.1089 17.5846 59.1154 17.4562C59.1154 17.4431 59.1154 17.4266 59.1154 17.4101C59.1154 17.397 59.1154 17.3838 59.1187 17.3707C59.1286 17.2094 59.1385 17.0613 59.1549 16.9198C59.1714 16.7782 59.1911 16.6433 59.2241 16.5117C59.2635 16.3504 59.3261 16.1957 59.4051 16.0476C59.4906 15.8863 59.596 15.7317 59.7177 15.5836C59.8494 15.4223 59.9975 15.2709 60.1522 15.1327C60.3266 14.978 60.5076 14.8398 60.6853 14.7213C60.817 14.6324 60.9453 14.5534 61.0704 14.4876C61.1954 14.4218 61.3205 14.3626 61.4489 14.3165C61.5641 14.2737 61.6792 14.2375 61.801 14.2079C61.9096 14.1815 62.0215 14.1585 62.14 14.142C62.0018 13.9907 61.857 13.8557 61.7056 13.7438C61.5443 13.6253 61.3732 13.5299 61.1922 13.4608C61.0013 13.3884 60.8005 13.3456 60.5899 13.339C60.3792 13.3291 60.1522 13.3555 59.9185 13.418C59.6848 13.4805 59.461 13.5727 59.257 13.6945C59.043 13.8195 58.8489 13.9742 58.6744 14.1519C58.4967 14.3329 58.342 14.537 58.217 14.7575C58.0919 14.978 57.9899 15.2117 57.9241 15.4585V15.4684V37.4433V37.7296V37.9765C57.9504 37.9732 57.9734 37.9666 57.9965 37.9633C58.0294 37.9567 58.0623 37.9469 58.0952 37.937C58.1347 37.9238 58.1742 37.9107 58.2137 37.8942C58.2532 37.8777 58.2894 37.858 58.3256 37.8382C58.4111 37.7889 58.4934 37.7296 58.5691 37.6605C58.6415 37.5914 58.7073 37.5157 58.7666 37.4269C58.8225 37.3413 58.8719 37.2491 58.9114 37.1438C58.9476 37.0451 58.9772 36.9398 58.997 36.8246C59.0035 36.795 59.0101 36.7456 59.0167 36.6962C59.0233 36.6501 59.0266 36.6041 59.0299 36.5777C59.043 36.4263 59.0529 36.2453 59.0595 36.0413C59.0694 35.8339 59.076 35.6036 59.0825 35.3469C59.0858 35.2119 59.0891 35.0704 59.0924 34.9256C59.0924 34.7775 59.099 34.6261 59.099 34.4714V33.1385L59.0957 33.1319ZM60.7808 33.1319V32.9739V32.9542V19.3585V19.3388H60.7873C60.7873 19.0689 60.7906 18.7891 60.8005 18.5127C60.8104 18.2362 60.8235 17.9663 60.8433 17.7129C60.863 17.4562 60.8927 17.216 60.9289 17.0053C60.9651 16.7947 61.0144 16.6104 61.0737 16.4656C61.1757 16.222 61.3041 16.0147 61.4587 15.8337C61.6101 15.6527 61.7879 15.5013 61.9787 15.3696C62.14 15.2577 62.3111 15.159 62.4889 15.0701C62.637 14.9945 62.7884 14.9253 62.943 14.8595C62.8213 14.8595 62.6995 14.8628 62.5777 14.8727C62.423 14.8826 62.2651 14.9023 62.1038 14.9385C61.8899 14.9846 61.6694 15.0603 61.4554 15.159C61.2448 15.2577 61.0408 15.3795 60.8565 15.5243C60.682 15.6593 60.5208 15.8139 60.3891 15.9818C60.2641 16.1398 60.1587 16.3109 60.0863 16.4952C60.0732 16.5281 60.06 16.561 60.0501 16.5939C60.0403 16.6269 60.0271 16.6631 60.0172 16.6993C60.0073 16.7322 59.9975 16.7684 59.9909 16.8079C59.981 16.8441 59.9744 16.8836 59.9679 16.9231C59.9613 16.9626 59.9514 17.002 59.9448 17.0415C59.9382 17.081 59.9317 17.1238 59.9251 17.1666C59.9185 17.2094 59.9119 17.2522 59.9086 17.2982C59.902 17.3443 59.8954 17.3937 59.8922 17.4398C59.8757 17.5945 59.8625 17.7524 59.8494 17.9104C59.8362 18.0684 59.8263 18.2231 59.8197 18.381C59.8132 18.4962 59.8099 18.6081 59.8066 18.72C59.8033 18.8319 59.8 18.9471 59.7967 19.059V19.0788H59.7868V33.5663V33.5729V33.7441C59.7868 34.7413 59.7868 36.2157 59.5861 37.1175C60.0633 36.66 60.3463 36.0939 60.5208 35.4884C60.6919 34.8795 60.7511 34.2279 60.7775 33.596C60.7775 33.517 60.7841 33.4413 60.7841 33.3656C60.7841 33.2899 60.7841 33.2142 60.7841 33.1352L60.7808 33.1319ZM54.7086 32.9739V33.1319C54.7086 33.2076 54.7086 33.2833 54.7086 33.3623C54.7086 33.438 54.7119 33.5137 54.7152 33.5927C54.7382 34.2279 54.8008 34.8795 54.9719 35.4851C55.143 36.0907 55.4294 36.6534 55.9066 37.1142C55.7058 36.2124 55.7058 34.738 55.7058 33.7408V33.5696V33.5631V32.9509V19.0722H55.696V19.0524C55.696 18.9405 55.6894 18.8286 55.6861 18.7134C55.6828 18.6015 55.6762 18.4896 55.6729 18.3745C55.6663 18.2198 55.6565 18.0618 55.6433 17.9038C55.6301 17.7458 55.617 17.5879 55.6005 17.4332C55.5939 17.3871 55.5906 17.3377 55.5841 17.2917C55.5775 17.2489 55.5742 17.2028 55.5676 17.16C55.561 17.1172 55.5544 17.0745 55.5479 17.035C55.5413 16.9955 55.5347 16.956 55.5248 16.9165C55.5182 16.877 55.5084 16.8408 55.5018 16.8013C55.4919 16.7651 55.482 16.7289 55.4754 16.6927C55.4656 16.6565 55.4557 16.6236 55.4425 16.5874C55.4327 16.5545 55.4195 16.5215 55.4063 16.4886C55.3339 16.3076 55.2286 16.1332 55.1035 15.9752C54.9686 15.8074 54.8106 15.6527 54.6362 15.5177C54.4486 15.3729 54.2479 15.2512 54.0372 15.1524C53.8233 15.0504 53.6028 14.978 53.3889 14.9319C53.2276 14.899 53.0696 14.8793 52.9149 14.8661C52.7932 14.8562 52.6714 14.8562 52.5496 14.8529C52.7043 14.9188 52.8557 14.9879 53.0038 15.0636C53.1815 15.1524 53.3527 15.2512 53.5139 15.3631C53.7048 15.4947 53.8825 15.6494 54.0339 15.8271C54.1886 16.0081 54.317 16.2155 54.419 16.459C54.4782 16.6038 54.5243 16.7848 54.5638 16.9988C54.6 17.2094 54.6296 17.4496 54.6494 17.7064C54.6691 17.9598 54.6823 18.2296 54.6922 18.5061C54.702 18.7793 54.7053 19.059 54.7053 19.3322H54.7119V32.9509V32.9707L54.7086 32.9739Z" fill="white"/>
<path d="M42.1003 35.3995C40.1684 32.4539 39.0428 28.9291 39.0428 25.1443C39.0428 17.1304 44.0782 10.2914 51.1575 7.61567V7.58276C43.8084 10.2782 38.5656 17.3377 38.5656 25.6182C38.5656 29.7552 39.8722 33.5861 42.097 36.7225V36.6995V35.3995H42.1003ZM70.0947 39.2501C66.8003 42.1266 62.4922 43.8709 57.776 43.8709C53.0598 43.8709 48.7516 42.1266 45.4572 39.2501H44.6048C44.5851 39.2501 44.5653 39.2501 44.5489 39.2501C44.4403 39.2501 44.3317 39.2468 44.2263 39.2304C47.6985 42.6893 52.4871 44.8253 57.776 44.8253C63.0648 44.8253 67.8633 42.6828 71.3355 39.2205C71.2104 39.2402 71.0787 39.2534 70.9504 39.2534H70.9208H70.8911H70.0947V39.2501ZM64.3911 7.61567C71.4704 10.2881 76.5058 17.1271 76.5058 25.1443C76.5058 28.9686 75.3605 32.523 73.3924 35.485V36.6995C73.3924 36.7225 73.3924 36.7423 73.3924 36.7653V36.7982V36.8048C75.6534 33.6552 76.983 29.7947 76.983 25.6215C76.983 17.3377 71.7403 10.2815 64.3911 7.58605V7.61897V7.61567Z" fill="white"/>
</g>
<defs>
<clipPath id="clip0_4004_507">
<rect width="115.493" height="91" fill="white"/>
</clipPath>
</defs>
</svg>
