<svg width="33" height="33" viewBox="0 0 33 33" fill="none" xmlns="http://www.w3.org/2000/svg">
<path fill-rule="evenodd" clip-rule="evenodd" d="M2.32941 24.2022C5.32233 25.3171 7.68294 27.6777 8.79778 30.6706L9.66548 33L11.9262 31.9664C14.8308 30.6384 18.1692 30.6384 21.0738 31.9664L23.3345 33L24.2022 30.6706C25.3171 27.6777 27.6777 25.3171 30.6706 24.2022L33 23.3345L31.9664 21.0738C30.6384 18.1692 30.6384 14.8308 31.9664 11.9262L33 9.66548L30.6706 8.79778C27.6777 7.68294 25.3171 5.32233 24.2022 2.32941L23.3345 0L21.0738 1.03359C18.1692 2.36159 14.8308 2.36159 11.9262 1.03359L9.66548 0L8.79778 2.32941C7.68294 5.32233 5.32233 7.68294 2.32941 8.79778L0 9.66548L1.03359 11.9262C2.36159 14.8308 2.36159 18.1692 1.03359 21.0738L0 23.3345L2.32941 24.2022ZM21.5846 28.7752L21.0738 28.5417C18.1692 27.2137 14.8308 27.2137 11.9262 28.5417L11.4154 28.7752L11.2194 28.249C10.1046 25.2561 7.74395 22.8954 4.75103 21.7806L4.22478 21.5846L4.45829 21.0738C5.78628 18.1692 5.78628 14.8308 4.45829 11.9262L4.22478 11.4154L4.75103 11.2194C7.74395 10.1046 10.1046 7.74395 11.2194 4.75103L11.4154 4.22478L11.9262 4.45829C14.8308 5.78628 18.1692 5.78628 21.0738 4.45829L21.5846 4.22478L21.7806 4.75104C22.8954 7.74395 25.2561 10.1046 28.249 11.2194L28.7752 11.4154L28.5417 11.9262C27.2137 14.8308 27.2137 18.1692 28.5417 21.0738L28.7752 21.5846L28.249 21.7806C25.256 22.8954 22.8954 25.2561 21.7806 28.249L21.5846 28.7752Z" fill="black"/>
<path fill-rule="evenodd" clip-rule="evenodd" d="M16.5 23C12.9101 23 10 20.0899 10 16.5C10 12.9101 12.9101 10 16.5 10C20.0899 10 23 12.9101 23 16.5C23 20.0899 20.0899 23 16.5 23Z" stroke="black" stroke-width="3"/>
</svg>
